<?xml version="1.0" encoding="utf-8"?>
<!-- Generator: Adobe Illustrator 22.1.0, SVG Export Plug-In . SVG Version: 6.00 Build 0)  -->
<svg version="1.1" id="Layer_1" xmlns="http://www.w3.org/2000/svg" xmlns:xlink="http://www.w3.org/1999/xlink" x="0px" y="0px"
	 viewBox="0 0 500 500" style="enable-background:new 0 0 500 500;" xml:space="preserve" fill="rgba(255, 255, 255, 0.6)">
<path d="M75.8,193.7c-1.9,0-3.7-1.1-4.5-2.9c-2.8-6-4.8-19,7.1-25.5c9.5-5.2,13.4-14.6,13.4-17.6c0-2.8,2.2-5,5-5s5,2.2,5,5
	c0,6.7-5.8,19.4-18.6,26.4c-6.8,3.7-3,12.2-2.9,12.5c1.2,2.5,0.1,5.5-2.4,6.6C77.2,193.6,76.5,193.7,75.8,193.7z"/>
<path d="M383.8,396.7c-0.9,0-1.8-0.2-2.6-0.7c-4.5-2.7-11.4-11.1-6-23.3c2.9-6.6,0.2-9.6-3.1-13.2c-0.7-0.8-1.4-1.6-2.1-2.4
	c-1.7-2.2-1.2-5.3,1-7c2.2-1.7,5.3-1.2,7,1c0.4,0.5,0.9,1.1,1.5,1.7c3.6,4,10.4,11.4,4.8,24c-1.4,3.2-1.5,5.9-0.2,8.2
	c0.9,1.6,2.2,2.4,2.2,2.5c2.4,1.4,3.1,4.5,1.7,6.9C387.1,395.9,385.5,396.7,383.8,396.7z"/>
<path d="M162.8,203.7c-0.6,0-1.2-0.1-1.9-0.4c-2.6-1-3.8-3.9-2.8-6.5c2.3-5.8,9.9-13,21.4-8.8c10.8,3.9,13.6,4,15.3,2.7
	c2.2-1.7,5.3-1.2,7,1s1.2,5.3-1,7c-6.4,4.8-14,2.6-24.7-1.3c-6.1-2.2-8.3,2.2-8.6,3.2C166.7,202.6,164.8,203.7,162.8,203.7z"/>
<path d="M316.8,129.7c-0.9,0-1.8-0.2-2.6-0.8c-2.3-1.5-3.1-4.5-1.6-6.9c2.5-4.1-0.9-12.3-3-15.7c-1.4-2.4-0.7-5.4,1.6-6.9
	c2.4-1.4,5.4-0.7,6.9,1.6c1,1.6,9.4,15.9,3,26.3C320.1,128.9,318.5,129.7,316.8,129.7z"/>
<path d="M157.8,128.7c-2,0-3.9-1.2-4.6-3.1c-1.2-2.9-6.7-17.8-1.5-25.6c3.3-5,5.2-14,5.2-17.2c0-2.8,2.2-5,5-5s5,2.2,5,5
	c0,4.4-2,15.5-6.8,22.8c-1.2,1.8-0.4,9.2,2.5,16.4c1,2.6-0.2,5.5-2.8,6.5C159.1,128.6,158.4,128.7,157.8,128.7z"/>
<path d="M66.8,84.7c-1.2,0-2.3-0.4-3.3-1.2c-2.1-1.8-2.3-5-0.5-7.1c3.7-4.2-4.7-13.1-4.8-13.2c-2-2-2-5.1,0-7.1c2-2,5.1-2,7.1,0
	c0.1,0.1,3.6,3.6,6,8.2C76.4,74,73,80.2,70.6,83C69.6,84.2,68.2,84.7,66.8,84.7z"/>
<path d="M156.8,345.7c-2,0-4-1.3-4.7-3.3c-0.1-0.2-2.1-5.9-3.4-12c-1.4-6.7-2.6-15.9,3.9-19.1c3.4-1.7,6.2-11,6.2-13.5
	c0-2.7,2.3-5,5-5c0,0,0,0,0,0c2.8,0,5,2.2,5,5c0,3.3-2.9,17.4-11.1,22.1c-0.7,2.7,1,11.5,3.8,19.2c0.9,2.6-0.4,5.5-3,6.4
	C157.9,345.6,157.4,345.7,156.8,345.7z"/>
<path d="M446.8,287.7c-0.6,0-1.2-0.1-1.9-0.4c-2.6-1-3.8-3.9-2.8-6.5c0.1-0.2,2.1-5.3,5.2-11.4c0.7-1.9-2.5-9.2-6.6-14.9
	c-1.6-2.2-1.1-5.4,1.2-7c2.2-1.6,5.4-1.1,7,1.2c2.8,3.9,11.4,17.1,7.4,25.1c-2.9,5.7-4.8,10.6-4.8,10.6
	C450.7,286.6,448.8,287.7,446.8,287.7z"/>
<path d="M420.8,209.7c-1.1,0-2.2-0.4-3.2-1.1c-10.3-8.5-15.5-15.2-15.4-19.7c0-2,1-3.9,2.6-5.1c3.9-3,6-4.7,6-8c0-2.8,2.2-5,5-5
	s5,2.2,5,5c0,7.1-4,11.3-7.8,14.3c1.9,2.6,6.4,7.1,11,10.9c2.1,1.8,2.4,4.9,0.7,7C423.7,209.1,422.2,209.7,420.8,209.7z"/>
<path d="M410.8,125.7c-2.8,0-5-2.2-5-5c0-4.9,3.2-7.2,5.3-8.7c1.2-0.9,2.5-1.8,3.8-3.4c1.1-1.4,0.9-7.5-0.9-13.4
	c-0.8-2.6,0.7-5.4,3.3-6.2c2.6-0.8,5.4,0.7,6.2,3.3c0.8,2.6,4.5,15.9-0.9,22.6c-2.1,2.6-4.2,4.1-5.7,5.2c-0.4,0.3-0.9,0.7-1.2,0.9
	C415.6,123.6,413.5,125.7,410.8,125.7z"/>
<path d="M368.8,94.7c-0.2,0-0.5,0-0.7-0.1c-2.7-0.4-4.6-2.9-4.2-5.7c1.8-12.9,3.2-28.7,2.2-31.7c-0.8-2.3-5.5-4.8-8.7-5.8
	c-2.6-0.8-4.1-3.6-3.3-6.2c0.8-2.6,3.6-4.1,6.2-3.3c1.3,0.4,12.6,4,15.3,12.2c2.2,6.6-0.8,29.4-1.8,36.3
	C373.4,92.9,371.3,94.7,368.8,94.7z"/>
<path d="M441.8,47.7c-1.1,0-2.3-0.4-3.2-1.2c-2.1-1.8-2.4-4.9-0.6-7c1.2-1.5-1.5-8.6-5.2-13.9c-1.6-2.2-1.1-5.4,1.2-7
	c2.2-1.6,5.4-1.1,7,1.2c2,2.9,11.9,17.6,4.8,26.1C444.7,47.1,443.2,47.7,441.8,47.7z"/>
<path d="M112.8,474.5c-4,0-7.3-0.9-9.9-2.7c-4.5-3.2-12.8-3.3-15.7-3.1c-2.7,0.2-5.2-1.8-5.4-4.6s1.8-5.2,4.6-5.4
	c1.4-0.1,14.1-1,22.3,4.9c3.1,2.2,12.5-0.1,18.1-2.5c2.5-1.1,5.5,0,6.6,2.6c1.1,2.5,0,5.5-2.6,6.6c-0.2,0.1-4.5,2-9.8,3.2
	C118,474.2,115.3,474.5,112.8,474.5z"/>
<path d="M209.8,433.7c-1.4,0-2.9-0.6-3.9-1.8c-1.7-2.1-1.5-5.2,0.7-7c0.3-0.3,7.8-6.4,17.8-5.1c7.4,0.9,17.8,0,17.9,0
	c2.7-0.2,5.2,1.8,5.4,4.5c0.2,2.7-1.8,5.2-4.5,5.4c-0.5,0-11.6,1-20.1,0c-5.6-0.7-10.2,2.9-10.2,2.9
	C212,433.4,210.9,433.7,209.8,433.7z"/>
<path d="M244.8,335.7c-1.6,0-3.2-0.8-4.2-2.2c-1.5-2.3-0.9-5.4,1.4-6.9c0.5-0.3,11.2-7.4,21.5-3.5c2.6,1,3.9,3.9,2.9,6.4
	c-1,2.6-3.8,3.9-6.4,2.9c-4.5-1.7-10.5,1.2-12.5,2.5C246.7,335.5,245.8,335.7,244.8,335.7z"/>
<path d="M285.9,377.4c-3.2,0-6.2-0.2-8.4-0.9c-8.3-2.4-15.8-11.7-16.6-12.7c-1.7-2.2-1.3-5.3,0.9-7c2.2-1.7,5.3-1.3,7,0.9
	c2.3,3,7.5,8.1,11.4,9.3c4.3,1.2,16.3,0,22.8-1.1c2.7-0.5,5.3,1.4,5.8,4.1c0.5,2.7-1.4,5.3-4.1,5.8
	C302.4,376.1,293.6,377.4,285.9,377.4z"/>
<path d="M308.8,312.7c-1.1,0-2.3-0.4-3.2-1.2c-2.1-1.8-2.4-4.9-0.6-7c1.5-2.1-0.3-12.8-3.8-22c-1-2.6,0.3-5.5,2.9-6.5
	c2.6-1,5.5,0.3,6.5,2.9c2.7,7.1,8.4,24.5,2.2,32C311.7,312.1,310.2,312.7,308.8,312.7z"/>
<path d="M258.8,144.7c-2.1,0-4-1.3-4.7-3.3c-1-2.7-5.6-16.8-0.5-24.5c1.5-2.3,4.6-2.9,6.9-1.4s2.9,4.6,1.4,6.9
	c-1.5,2.3-0.4,10,1.6,15.5c0.9,2.6-0.4,5.5-3,6.4C259.9,144.6,259.4,144.7,258.8,144.7z"/>
<path d="M196.8,63.7c-1.5,0-2.9-0.7-3.9-1.9c-1.7-2.2-1.3-5.3,0.8-7c0.2-0.1,4-3.1,9.4-5.6c7.7-3.6,14.6-4.3,20.4-2.2
	c2.6,0.9,3.9,3.8,3,6.4c-0.9,2.6-3.8,3.9-6.4,3c-6.8-2.5-17.1,3.8-20.2,6.2C199,63.4,197.9,63.7,196.8,63.7z"/>
<path d="M20.1,30.1c-1.4,0-2.8-0.1-4.3-0.4c-2.7-0.5-4.5-3.2-3.9-5.9c0.5-2.7,3.2-4.5,5.9-3.9c7.5,1.5,15.8-4.9,15.9-5
	c2.2-1.7,5.3-1.3,7,0.8c1.7,2.2,1.4,5.3-0.8,7C39.5,23,30.5,30.1,20.1,30.1z"/>
<path d="M107.8,19.7c-1.7,0-3.4-0.9-4.3-2.5c-1.1-1.9-9.4-2.2-16.6-0.6c-2.7,0.6-5.4-1.1-6-3.8c-0.6-2.7,1.1-5.4,3.8-6
	c3.6-0.8,21.9-4.3,27.4,5.4c1.4,2.4,0.5,5.5-1.9,6.8C109.5,19.5,108.6,19.7,107.8,19.7z"/>
<path d="M46.8,297.7c-1.2,0-2.3-0.4-3.3-1.2c-2.1-1.8-2.3-5-0.5-7c2.1-2.4-1.7-9.5-5-13.5c-1.8-2.1-1.5-5.3,0.6-7
	c2.1-1.8,5.3-1.5,7,0.6c1.4,1.7,13.5,16.5,5,26.5C49.6,297.2,48.2,297.7,46.8,297.7z"/>
<path d="M44.2,416c-4.8-2.9-12-12.3-5-27.4c1.2-2.5,4.1-3.6,6.6-2.4c2.5,1.2,3.6,4.1,2.4,6.6c-4.8,10.3,0.5,14.2,1.1,14.7l-0.1-0.1
	L44.2,416z"/>
<path d="M105.8,301.7c-2,0-3.9-1.2-4.6-3.1c-2.3-5.7,0.9-11.4,4-17c1.1-1.9,2.2-4,3-5.8c1.3-3-2.7-7.4-3.7-8.3
	c-2.1-1.8-2.3-5-0.5-7.1c1.8-2.1,5-2.3,7.1-0.5c4,3.5,9.8,11.6,6.3,19.7c-1,2.4-2.3,4.6-3.5,6.8c-1.5,2.7-4,7.1-3.5,8.4
	c1,2.6-0.2,5.5-2.8,6.5C107.1,301.6,106.4,301.7,105.8,301.7z"/>
<path d="M216.8,265.7c-1.2,0-2.3-0.4-3.3-1.2c-2.1-1.8-2.3-5-0.5-7.1c0.3-0.3,7.5-8.5,14.9-13.8c4.9-3.5,9.9-12.7,11.4-16
	c1.2-2.5,4.1-3.6,6.6-2.4c2.5,1.2,3.6,4.1,2.4,6.6c-0.7,1.5-6.8,14.4-14.6,20c-6.4,4.6-13.1,12.1-13.1,12.2
	C219.6,265.2,218.2,265.7,216.8,265.7z"/>
<path d="M324.8,212.7c-0.6,0-1.2-0.1-1.8-0.3c-2.6-1-3.9-3.8-2.9-6.4c0.1-0.4,3.4-9,10.9-17.5c1.8-2.1,5-2.3,7.1-0.5
	c2.1,1.8,2.3,5,0.5,7.1c-6.3,7.2-9.1,14.4-9.1,14.5C328.7,211.5,326.8,212.7,324.8,212.7z"/>
<path d="M442.8,156.7c-2.5,0-4.7-1.9-5-4.5c-0.3-2.7,1.7-5.2,4.4-5.5c0.5-0.1,8.1-1.3,15.5-11.9c1.6-2.3,4.7-2.8,7-1.3
	c2.3,1.6,2.8,4.7,1.3,7c-4.1,6-9.2,10.6-14.7,13.5c-4.3,2.2-7.3,2.6-7.9,2.7C443.1,156.7,443,156.7,442.8,156.7z"/>
<path d="M474.8,79.7c-2.5,0-4.7-1.9-5-4.5c-0.1-1.5-1.2-15,5-22.5c2.4-2.9,5.7-4.6,9.5-5c2.7-0.2,5.2,1.8,5.4,4.6
	c0.2,2.8-1.8,5.2-4.6,5.4c-1.1,0.1-1.9,0.5-2.7,1.4c-2.7,3.3-3.1,11-2.8,15.2c0.3,2.7-1.8,5.2-4.5,5.4
	C475.1,79.7,475,79.7,474.8,79.7z"/>
<path d="M286.5,66.3c-6.4,0-14-0.6-18.9-3c-2.5-1.2-3.5-4.2-2.2-6.7c1.2-2.5,4.2-3.5,6.7-2.2c4.9,2.4,17.5,2.2,24.2,1.5
	c2.7-0.3,5.2,1.7,5.5,4.4s-1.7,5.2-4.4,5.5C296.4,65.8,291.9,66.3,286.5,66.3z"/>
<path d="M283.8,24.7c-1.6,0-3.1-0.7-4.1-2.1c-1.6-2.2-1.1-5.4,1.2-7c7.9-5.6,28.8-5.9,32.9-5.9c2.8,0,5,2.2,5,5c0,2.8-2.2,5-5,5
	c-8.9,0-23.2,1.3-27.1,4.1C285.8,24.4,284.8,24.7,283.8,24.7z"/>
<path d="M139.8,53.7c-0.2,0-0.3,0-0.5,0c-2.8-0.2-4.8-2.7-4.5-5.4c1.1-12.6,20.3-26.9,24.1-29.6c2.2-1.6,5.4-1.1,7,1.2
	c1.6,2.2,1.1,5.4-1.2,7l0,0c-7.9,5.7-19.4,16.4-19.9,22.4C144.5,51.8,142.4,53.7,139.8,53.7z"/>
<path d="M460.8,446.7c-0.5,0-0.9-0.1-1.4-0.2c-2.7-0.8-4.2-3.5-3.4-6.2c0.2-2.1-5.4-8.9-11.3-13.7c-2.2-1.7-2.5-4.9-0.8-7
	c1.7-2.2,4.9-2.5,7-0.8c0.2,0.1,4.1,3.3,7.8,7.4c6,6.6,8.2,12.1,6.8,16.9C465,445.3,463,446.7,460.8,446.7z"/>
<path d="M407.8,459.7c-2.3,0-4.4-1.6-4.9-3.9c-2.4-10.6,3.7-15.6,7.3-16.8l3.2,9.5c0,0,0.1,0,0.2-0.1c-0.9,0.4-1.6,2-0.9,5.3
	c0.6,2.7-1.1,5.4-3.8,6C408.5,459.7,408.2,459.7,407.8,459.7z"/>
<path d="M435.8,377.7c-2.1,0-4.1-1.4-4.8-3.5l-6-19c-0.8-2.6,0.6-5.4,3.3-6.3c2.6-0.8,5.4,0.6,6.3,3.3l6,19c0.8,2.6-0.6,5.4-3.3,6.3
	C436.8,377.7,436.3,377.7,435.8,377.7z"/>
<path d="M390.8,309.7c-1.6,0-3.3-0.8-4.2-2.3c-3.3-5.1-10.3-17.8-4.7-24.8c1.7-2.2,4.9-2.5,7-0.8c2.1,1.7,2.5,4.7,0.9,6.9
	c-0.5,1.9,2,8.3,5.2,13.3c1.5,2.3,0.8,5.4-1.5,6.9C392.7,309.5,391.7,309.7,390.8,309.7z M389.7,288.9
	C389.7,288.9,389.7,288.9,389.7,288.9L389.7,288.9z M389.8,288.7L389.8,288.7z"/>
<path d="M35.8,173.7c-1.8,0-3.5-1-4.4-2.6c-0.9-1.7-8.7-16.8,0.2-24.2c2.1-1.8,5.3-1.5,7,0.6c1.8,2.1,1.5,5.3-0.6,7
	c-1.5,1.3-0.1,7.6,2.2,11.8c1.3,2.4,0.4,5.5-2,6.8C37.4,173.6,36.6,173.7,35.8,173.7z"/>
<path d="M80.5,122c-1.2,0-2.5-0.1-3.8-0.4c-2.7-0.6-4.4-3.3-3.8-6c0.6-2.7,3.3-4.4,6-3.8c5.2,1.1,11.5-3.8,13.4-5.7c2-2,5.1-2,7.1,0
	c2,2,2,5.1,0,7.1C98.3,114.3,90.3,122,80.5,122z"/>
<path d="M29.8,109.7c-1.7,0-3.3-0.8-4.2-2.4c-5.9-9.5,3.7-20,10.3-24.7c2.2-1.6,5.4-1.1,7,1.2c1.6,2.2,1.1,5.4-1.2,7
	c-3.6,2.6-9.3,8.6-7.7,11.3c1.5,2.3,0.8,5.4-1.6,6.9C31.6,109.5,30.7,109.7,29.8,109.7z"/>
<path d="M185.8,151.7c-2,0-4-1.3-4.7-3.3c-0.9-2.6,0.4-5.5,3-6.4c12.4-4.5,28.5-9.1,34.3-5.6c2.4,1.4,3.1,4.5,1.7,6.9
	c-1.4,2.3-4.3,3.1-6.6,1.9c-2.9-0.6-14.9,2.3-26,6.3C186.9,151.7,186.4,151.7,185.8,151.7z"/>
<path d="M284.8,210.7c-0.3,0-0.7,0-1-0.1c-2.7-0.5-4.5-3.2-3.9-5.9c0.3-2-1.9-10.6-4.8-18.3c-1-2.6,0.3-5.5,2.9-6.4
	c2.6-1,5.5,0.3,6.4,2.9c2,5.2,6.4,18,5.2,23.7C289.2,209.1,287.1,210.7,284.8,210.7z"/>
<path d="M105.8,404.7c-1.2,0-2.3-0.4-3.3-1.2c-0.5-0.4-4.8-4.3-5-10.6c-0.1-4.5,1.8-8.8,5.7-12.7c2-2,5.1-2,7.1,0c2,2,2,5.1,0,7.1
	c-1.9,1.9-2.9,3.7-2.8,5.3c0.1,1.9,1.6,3.4,1.6,3.4c2.1,1.8,2.3,5,0.5,7.1C108.6,404.2,107.2,404.7,105.8,404.7z"/>
<path d="M149.8,405.7c-1.2,0-2.4-0.4-3.4-1.3c-2-1.9-2.2-5-0.3-7c0.3-0.4,3.5-3.7,8.3-6.3c7-3.7,14.2-4,20.6-0.8
	c2.6,1.3,4.7,1.7,6,1.2c1.4-0.6,2-2.2,2-2.2l4.8,1.5l4.8,1.4c-0.2,0.6-1.9,6-7.5,8.4c-4.2,1.8-9.1,1.4-14.5-1.4
	c-3.4-1.7-7.1-1.5-11.2,0.6c-3.5,1.8-5.9,4.3-5.9,4.3C152.5,405.2,151.1,405.7,149.8,405.7z"/>
<path d="M319.8,455.7c-2.1,0-4-1.3-4.7-3.3c-1.4-3.9-5.5-17.1-0.2-23.8c1.3-1.6,2.7-2.8,3.8-3.8c0.6-0.5,1.5-1.3,1.6-1.6l0,0
	c0,0,0.1-0.9-1-3.5c-1.1-2.5,0-5.5,2.5-6.6c2.5-1.1,5.5,0,6.6,2.5c4.1,9.3,0.9,13.2-3.2,16.7c-0.9,0.8-1.8,1.5-2.5,2.5
	c-0.9,1.2-0.6,7.4,1.8,14.2c0.9,2.6-0.4,5.5-3,6.4C320.9,455.7,320.4,455.7,319.8,455.7z"/>
<path d="M348.8,277.7c-0.8,0-1.7-0.2-2.5-0.7c-2.4-1.4-3.2-4.4-1.9-6.8c1.6-2.7-2.2-8-4.2-10c-1.9-2-1.9-5.1,0-7.1
	c2-1.9,5.1-1.9,7.1,0c4.3,4.3,10.5,13.9,5.8,22C352.2,276.8,350.5,277.7,348.8,277.7z"/>
<path d="M163,258.8c-8.1,0-13.6-11.5-17-21.5c-0.5-1.6-1.3-2-1.6-2.1c-1.5-0.7-3.9-0.2-4.9,0.2c-2.6,1-5.5-0.3-6.5-2.9
	c-1-2.6,0.2-5.4,2.8-6.5c0.7-0.3,7-2.7,12.7,0c2.3,1,5.3,3.3,6.9,8.1c3.2,9.5,6.4,13.8,7.7,14.6c2.5-0.3,4.9,1.4,5.4,4
	c0.5,2.7-1.2,5.3-3.9,5.9C164.2,258.8,163.6,258.8,163,258.8z"/>
<path d="M59.2,244c-5.4,0-12.1-1.6-17.3-8.1c-6.4-8-10.3-9.3-10.3-9.3c0.2,0.1,0.3,0.1,0.3,0.1l2-9.8c1.6,0.3,7.4,2.2,15.9,12.8
	c5.6,7.1,15.2,3.5,15.3,3.5c2.6-1,5.5,0.3,6.5,2.9c1,2.6-0.3,5.5-2.9,6.5C68.3,242.5,64.3,244,59.2,244z"/>
<path d="M398.8,33.7c-0.5,0-0.9-0.1-1.4-0.2c-2.5-0.7-4-3.3-3.5-5.8c-1.1-1.5-6.5-4-11.3-5.1c-2.7-0.6-4.3-3.3-3.7-6
	c0.6-2.7,3.3-4.3,6-3.7c3.2,0.8,14,3.7,17.7,10c1.3,2.3,1.7,4.8,1,7.3C403,32.3,401,33.7,398.8,33.7z M394,27.9L394,27.9L394,27.9z"
	/>
<path d="M470.8,225.7c-2,0-4-1.3-4.7-3.3c-0.9-2.6,0.4-5.5,3-6.4c6.9-2.5,4.8-13.2,4.8-13.3c-0.5-2.7,1.2-5.3,3.9-5.9
	c2.7-0.5,5.3,1.2,5.9,3.9c1.3,6.6,0.7,20.4-11.2,24.7C471.9,225.6,471.4,225.7,470.8,225.7z"/>
<path d="M472.8,354.7c-1.3,0-2.6-0.5-3.5-1.5c-10.3-10.3-1-29.6,0.1-31.8c1.2-2.5,4.2-3.5,6.7-2.2c2.5,1.2,3.5,4.2,2.2,6.7
	c-2.4,4.8-6,16.1-1.9,20.2c2,2,2,5.1,0,7.1C475.4,354.3,474.1,354.7,472.8,354.7z"/>
<path d="M460.6,486c-1.4,0-2.8-0.1-4.4-0.3c-2.7-0.3-4.7-2.8-4.4-5.5c0.3-2.7,2.8-4.7,5.5-4.4c13.1,1.5,14.5-5.8,14.5-5.9
	c0.5-2.7,3-4.6,5.8-4.1c2.7,0.5,4.6,3,4.1,5.8C480.9,476.8,475.3,486,460.6,486z"/>
<path d="M235.8,480.7c-2.6,0-4.7-2-5-4.5c-0.2-2.8,1.8-5.2,4.5-5.4c6.3-0.6,10.6-10.2,11.7-13.5c0.8-2.6,3.6-4.1,6.3-3.3
	c2.6,0.8,4.1,3.6,3.3,6.3c-0.1,0.2-1.5,4.7-4.4,9.3c-4.3,6.8-9.8,10.6-15.9,11.2C236.1,480.7,236,480.7,235.8,480.7z"/>
<path d="M172.8,456.7c-1.8,0-3.6-1-4.5-2.7c-0.3-0.6-6.3-11.3-24.5-11.3c-2.8,0-5-2.2-5-5s2.2-5,5-5c24.8,0,33.1,16.1,33.5,16.8
	c1.2,2.5,0.2,5.5-2.2,6.7C174.3,456.6,173.6,456.7,172.8,456.7z"/>
<path d="M213.8,365.7c-1.2,0-2.5-0.5-3.4-1.4c-0.2-0.2-4.7-4.5-8.8-10.7c-5.7-8.8-7.7-17.2-5.6-24.4c0.8-2.7,3.5-4.2,6.2-3.4
	c2.7,0.8,4.2,3.5,3.4,6.2c-2.6,9,7.5,21.1,11.6,25c2,1.9,2.1,5.1,0.2,7.1C216.5,365.2,215.1,365.7,213.8,365.7z"/>
<path d="M368.8,193.7c-0.4,0-0.8,0-1.1-0.1c-2.7-0.6-4.4-3.3-3.7-6c3.5-14.7-8.3-34-8.4-34.2c-1.4-2.3-0.7-5.4,1.6-6.9
	c2.3-1.5,5.4-0.7,6.9,1.6c0.6,0.9,14,23,9.6,41.8C373.1,192.2,371.1,193.7,368.8,193.7z"/>
<path d="M79.8,346.7c-1,0-2-0.3-2.8-0.9c-0.1-0.1-9.2-6.2-23.5-7.1c-2.8-0.2-4.9-2.5-4.7-5.3c0.2-2.8,2.5-4.9,5.3-4.7
	c17.2,1.1,28.1,8.6,28.6,8.9c2.3,1.6,2.8,4.7,1.2,7C82.9,346,81.4,346.7,79.8,346.7z"/>
<path d="M257.8,278.7c-0.5,0-1.1-0.1-1.6-0.3c-2.6-0.9-4-3.7-3.2-6.3c0.1-0.2,1.5-4.4,4.3-8.8c4-6.4,9-10.4,14.5-11.5
	c2.7-0.5,5.3,1.2,5.9,3.9c0.5,2.7-1.2,5.3-3.9,5.9c-5.8,1.2-10.2,10.5-11.2,13.7C261.8,277.4,259.9,278.7,257.8,278.7z"/>
<path d="M239.8,30.7c-1.9,0-3.7-1.1-4.6-3c-1.6-3.7-12.5-6.6-21.7-7c-2.8-0.1-4.9-2.5-4.8-5.2c0.1-2.8,2.4-4.9,5.2-4.8
	c4.2,0.2,25.3,1.7,30.3,13c1.1,2.5,0,5.5-2.5,6.6C241.2,30.6,240.5,30.7,239.8,30.7z"/>
<path d="M355.8,492.7c-2.6,0-4.8-2-5-4.7c-0.2-3.1-0.8-18.8,6.8-25.2c2.1-1.8,5.3-1.5,7,0.6c1.8,2.1,1.5,5.3-0.6,7
	c-2.6,2.2-3.6,11.2-3.2,16.9c0.2,2.8-1.9,5.1-4.7,5.3C356,492.7,355.9,492.7,355.8,492.7z"/>
<path d="M13.8,490.7c-2.7,0-4.9-2.1-5-4.8c0-0.5-0.4-11.2,6.8-19.2c4.6-5,10.9-7.7,19-8.1c2.7-0.1,5.1,2,5.2,4.8
	c0.1,2.8-2,5.1-4.8,5.2c-5.3,0.2-9.3,1.9-12,4.8c-4.4,4.8-4.2,11.9-4.2,11.9c0.1,2.8-2,5.1-4.8,5.2C14,490.7,13.9,490.7,13.8,490.7z
	"/>
<path d="M468.8,107.7c-0.8,0-1.7-0.2-2.5-0.7c-4-2.3-11.5-0.5-13.8,0.4c-2.6,0.9-5.5-0.4-6.4-3c-0.9-2.6,0.4-5.5,3-6.4
	c1.3-0.5,13.4-4.6,22.2,0.4c2.4,1.4,3.2,4.4,1.9,6.8C472.2,106.8,470.5,107.7,468.8,107.7z"/>
<path d="M308.8,170.7c-1.4,0-2.8-0.6-3.8-1.7c-0.1-0.1-5-5.6-10.8-6.3c-2.7-0.3-4.7-2.8-4.3-5.6c0.3-2.7,2.8-4.7,5.6-4.3
	c9.6,1.2,16.4,8.8,17.2,9.7c1.8,2.1,1.6,5.3-0.5,7.1C311.1,170.3,310,170.7,308.8,170.7z"/>
<path d="M107.8,199.7c-0.8,0-1.7-0.2-2.5-0.7c-2.4-1.4-3.2-4.4-1.9-6.8c8.5-15,16.4-17.2,18.6-17.5c2.7-0.4,5.3,1.5,5.7,4.2
	c0.4,2.7-1.5,5.3-4.2,5.7c-2.2,0.3-7.4,5.5-11.4,12.5C111.2,198.8,109.5,199.7,107.8,199.7z"/>
<path d="M215.8,96.7c-1.6,0-3.2-0.8-4.2-2.3c-1.5-2.3-0.8-5.4,1.5-6.9c2-1.3,19.7-12.3,32.8-6.4c2.5,1.1,3.6,4.1,2.5,6.6
	s-4.1,3.6-6.6,2.5c-6.9-3.2-19.4,3.2-23.2,5.6C217.7,96.5,216.7,96.7,215.8,96.7z"/>
<path d="M336.8,354.7c-0.9,0-1.8-0.2-2.6-0.7c-2.4-1.4-3.1-4.5-1.7-6.9c1.1-1.9,0.6-9.1-0.6-14.3c-0.6-2.7,1.1-5.4,3.7-6
	c2.7-0.6,5.4,1.1,6,3.7c0.8,3.5,3.2,15.5-0.6,21.7C340.2,353.9,338.5,354.7,336.8,354.7z"/>
<path d="M292.8,485.7c-1.4,0-2.8-0.6-3.8-1.8l-11-13c-1.8-2.1-1.5-5.3,0.6-7c2.1-1.8,5.3-1.5,7,0.6l11,13c1.8,2.1,1.5,5.3-0.6,7
	C295.1,485.4,293.9,485.7,292.8,485.7z"/>
<path d="M400.8,246.7c-0.9,0-1.8-0.2-2.6-0.7c-5.9-3.5-15.8-8.8-19.2-9.4c-2.7-0.5-4.6-3-4.1-5.8c0.5-2.7,3-4.6,5.8-4.1
	c6.6,1.1,20.1,9.1,22.8,10.6c2.4,1.4,3.1,4.5,1.7,6.9C404.2,245.9,402.5,246.7,400.8,246.7z"/>
<path d="M120.8,89.7c-2.8,0-5-2.2-5-5c0-1.4-4.7-4.1-9.1-5.1c-2.7-0.6-4.4-3.3-3.7-6c0.6-2.7,3.3-4.4,6-3.7
	c1.7,0.4,16.9,4.2,16.9,14.9C125.8,87.5,123.6,89.7,120.8,89.7z"/>
<path d="M35.8,365.7c-1.5,0-2.9-0.6-3.9-1.9c-2.4-2.9-9.6-6.3-12.8-7.4c-2.6-0.9-3.9-3.8-3-6.4c0.9-2.6,3.8-3.9,6.4-3
	c1.3,0.5,12.5,4.7,17.2,10.6c1.7,2.2,1.4,5.3-0.8,7C38,365.4,36.9,365.7,35.8,365.7z"/>
<path d="M462.8,396.7c-1.9,0-3.8-1.1-4.6-3c-1.1-2.5,0.1-5.5,2.6-6.6c0.8-0.4,8.5-3.5,16.7-2.4c2.7,0.4,4.6,2.9,4.2,5.7
	c-0.4,2.7-2.9,4.6-5.7,4.2c-5.5-0.8-11.3,1.6-11.3,1.6C464.1,396.6,463.5,396.7,462.8,396.7z"/>
</svg>
